<svg width="295" height="259" viewBox="0 0 295 259" fill="none" xmlns="http://www.w3.org/2000/svg">
<path d="M210.156 34.5504L147.838 2L85.5076 34.5548L34 20.3962V35.3332C34 35.3332 34 101.359 34 149.171C34 156.735 35.5787 164.086 38.2024 171.032C42.8223 183.198 50.5604 194.244 59.6895 204.227C73.4172 219.172 90.3901 231.762 106.177 240.9C114.079 245.463 121.674 249.144 128.584 251.781C132.044 253.102 135.335 254.16 138.492 254.925C141.662 255.676 144.672 256.17 147.839 256.179C152.637 256.143 157.191 255.085 162.26 253.484C171.047 250.648 181.15 245.871 191.769 239.57C207.648 230.103 224.52 217.252 237.922 202.07C244.615 194.47 250.445 186.267 254.714 177.444C258.969 168.63 261.673 159.11 261.677 149.171C261.677 125.265 261.677 96.8054 261.677 74.322C261.677 63.0805 261.677 53.3328 261.677 46.396C261.677 39.4592 261.677 35.3412 261.677 35.3412V20.3962L210.156 34.5504ZM238.909 149.171C238.909 153.556 237.997 158.163 236.174 162.983C233.013 171.405 226.978 180.379 219.201 188.846C207.568 201.564 192.133 213.107 178.117 221.183C171.118 225.229 164.465 228.422 158.982 230.508C156.247 231.553 153.806 232.318 151.845 232.789C149.898 233.27 148.408 233.421 147.839 233.412C146.945 233.448 144.028 233.012 140.382 231.811C133.916 229.743 124.956 225.612 115.551 220.005C101.406 211.609 86.1038 199.839 74.8405 187.023C69.1974 180.624 64.5725 173.985 61.4692 167.542C58.3471 161.085 56.7644 154.917 56.7689 149.172C56.7689 125.266 56.7689 96.8064 56.7689 74.323C56.7689 65.0246 56.7689 56.7762 56.7689 50.2658L88.1144 58.8791L147.838 27.6845L207.554 58.8791L211.872 57.6921L238.909 50.2658C238.909 72.509 238.909 115.375 238.909 149.171Z" fill="#007ACD"/>
<path d="M147.838 53.4763L95.1972 80.9664L79.5353 76.6622V147.57C79.5353 171.708 130.75 206.7 147.838 209.591C164.928 206.7 216.141 171.708 216.141 147.57V76.6622L200.466 80.9664L147.838 53.4763Z" fill="#00A672"/>
<path opacity="0.6" fill-rule="evenodd" clip-rule="evenodd" d="M148.693 176.771C177.164 175.755 196.96 151.079 195.249 129.003C194.853 124.418 190.786 120.864 186.192 121.085C181.598 121.305 178.052 125.207 178.272 129.801C178.916 143.217 166.858 159.609 147.826 160.136C147.594 160.143 147.366 160.158 147.14 160.183C147.263 160.182 147.387 160.179 147.511 160.176C152.109 160.063 155.928 163.698 156.041 168.296C156.148 172.633 152.919 176.277 148.693 176.771Z" fill="url(#paint0_linear)"/>
<path d="M165.387 129.585C165.387 124.877 169.238 121.06 173.989 121.06H186.527C191.278 121.06 195.249 124.877 195.249 129.585C195.249 134.293 191.278 138.11 186.527 138.11H173.989C169.238 138.11 165.387 134.293 165.387 129.585Z" fill="white"/>
<path d="M139.08 129.598C139.08 124.882 142.907 121.06 147.623 121.06C152.339 121.06 156.166 124.882 156.166 129.598C156.166 134.313 152.339 138.135 147.623 138.135C142.907 138.135 139.08 134.313 139.08 129.598Z" fill="white"/>
<path fill-rule="evenodd" clip-rule="evenodd" d="M155.93 89.7076C156.12 94.3025 152.55 98.1821 147.954 98.373C128.116 99.1968 116.005 114.744 116.594 129.506C116.778 134.101 113.275 137.975 108.679 138.158C104.084 138.342 100.042 134.633 99.8586 130.038C98.8979 105.982 118.987 82.2003 147.263 81.7333C151.859 81.5425 155.739 85.1127 155.93 89.7076Z" fill="white"/>
<path opacity="0.7" fill-rule="evenodd" clip-rule="evenodd" d="M99.8326 129.147C99.9454 158.212 123.801 177.419 147.92 176.825C152.518 176.712 156.154 172.893 156.041 168.296C155.928 163.698 152.109 160.063 147.51 160.176C132.392 160.548 117.257 148.678 116.594 130.205C116.417 134.487 113.041 137.984 108.68 138.158C104.084 138.342 100.042 134.633 99.8586 130.038C99.8467 129.741 99.838 129.444 99.8326 129.147Z" fill="url(#paint1_linear)"/>
<defs>
<linearGradient id="paint0_linear" x1="191.416" y1="139.023" x2="56.9096" y2="175.185" gradientUnits="userSpaceOnUse">
<stop stop-color="white" stop-opacity="0.89"/>
<stop offset="1" stop-color="white" stop-opacity="0.51"/>
</linearGradient>
<linearGradient id="paint1_linear" x1="144.487" y1="163.41" x2="73.1819" y2="86.2103" gradientUnits="userSpaceOnUse">
<stop stop-color="white"/>
<stop offset="1" stop-color="white" stop-opacity="0.8"/>
</linearGradient>
</defs>
</svg>
